<svg xmlns="http://www.w3.org/2000/svg" width="868" height="1050" viewBox="0 0 868 1050">
	<g fill="none" stroke-width="1.1" fill-rule="evenodd" stroke="#00d600">
	<path d="M265.035 1049c-22.073 0-38.234-4.34-49.41-13.062-22.1-17.25-23.267-50.118-24.623-88.177-2.418-67.95-5.728-161.008-132.487-225.417C16.65 701.073-.52 687.509 1.105 676.996 2.87 665.576 25.911 661.79 55.085 657c41.535-6.823 93.227-15.31 91.903-48.207-1.968-48.724-30.483-49.958-60.674-51.26-18.455-.796-37.54-1.62-48.95-14.716-8.806-10.107-12.022-26.382-9.832-49.761 10.463-111.7 99.214-333.967 198.136-356.71 37.893-8.721 72.734 12.663 103.56 63.536 21.047 34.735 35.978 51.129 45.856 50.1 9.023-.942 14.902-17.746 21.129-35.536 8.504-24.31 18.146-51.86 40.166-60.103 13.525-5.061 29.617-2.085 49.195 9.088 23.227 13.256 42.703 17.13 59.538 11.828 29.758-9.36 47.718-47.22 65.085-83.831C636.42 36.149 663.54-21.016 732.103 7.655c48.374 20.223 89.4 58.796 112.562 105.83 28.701 58.287 29.76 127.84 3.064 201.14-77.91 213.886-252.108 346.636-347.904 360.234-32.515 4.612-54.562 15.464-67.407 33.176-22.358 30.831-13.98 78.442-5.112 128.846 14.545 82.656 31.03 176.334-98.358 203.994-25.302 5.41-46.457 8.125-63.913 8.125z" opacity=".2"/><path d="M268.106 1032c-21.41 0-37.085-4.211-47.924-12.673-21.431-16.735-22.562-48.633-23.877-85.565-2.345-65.946-5.557-156.26-128.521-218.77-40.606-20.642-57.26-33.8-55.682-43.997 1.713-11.075 24.06-14.748 52.35-19.396 40.296-6.62 90.445-14.861 89.156-46.796-1.904-47.296-29.57-48.489-58.86-49.758-17.904-.772-36.412-1.57-47.477-14.276-8.538-9.807-11.655-25.598-9.532-48.283 10.149-108.4 96.233-324.097 192.183-346.17 36.751-8.456 70.54 12.29 100.444 61.656 20.42 33.72 35.006 49.632 44.489 48.628 8.755-.917 14.462-17.226 20.502-34.494 8.25-23.589 17.6-50.325 38.956-58.32 13.121-4.91 28.722-2.025 47.708 8.817 22.533 12.865 41.425 16.622 57.763 11.48 28.87-9.086 46.292-45.83 63.136-81.363 25.438-53.643 51.734-109.107 118.237-81.296 46.92 19.627 86.713 57.058 109.178 102.701 27.841 56.565 28.867 124.063 2.97 195.195C757.738 526.883 588.77 655.713 495.85 668.904c-31.541 4.48-52.93 15.014-65.39 32.203-21.694 29.926-13.566 76.131-4.962 125.05 14.108 80.21 30.097 171.118-95.399 197.959-24.543 5.249-45.064 7.884-61.992 7.884z" opacity=".2"/><path d="M271.87 1013c-20.72 0-35.885-4.075-46.373-12.262-20.74-16.192-21.839-47.05-23.11-82.785-2.27-63.812-5.38-151.205-124.398-211.692-39.298-19.974-55.414-32.7-53.89-42.56 1.656-10.71 23.282-14.262 50.663-18.76 39.003-6.404 87.546-14.379 86.299-45.289-1.846-45.777-28.626-46.932-56.982-48.157-17.322-.748-35.236-1.522-45.942-13.81-8.263-9.485-11.28-24.765-9.225-46.711 9.825-104.885 93.143-313.59 186.004-334.947 35.567-8.174 68.268 11.897 97.2 59.655 19.769 32.63 33.861 48.024 43.075 47.058 8.486-.89 14.009-16.672 19.855-33.384 7.984-22.823 17.034-48.69 37.698-56.423 12.693-4.755 27.792-1.96 46.165 8.53 21.813 12.454 40.102 16.085 55.92 11.11 27.946-8.795 44.807-44.35 61.115-78.734 24.617-51.899 50.07-105.566 114.42-78.655 45.414 18.987 83.927 55.205 105.669 99.366 26.943 54.728 27.939 120.038 2.876 188.859-73.142 200.839-236.678 325.49-326.612 338.258-30.532 4.332-51.235 14.528-63.299 31.162-20.995 28.963-13.128 73.675-4.802 121.01 13.652 77.604 29.128 165.559-92.326 191.53-23.755 5.078-43.617 7.631-60 7.631z" opacity=".2"/><path d="M274.936 995c-20.052 0-34.733-3.947-44.884-11.873-20.07-15.677-21.134-45.565-22.364-80.174-2.198-61.807-5.21-146.456-120.433-205.044-38.034-19.341-53.634-31.663-52.16-41.208 1.605-10.365 22.535-13.806 49.032-18.16 37.767-6.208 84.763-13.931 83.557-43.879-1.79-44.346-27.721-45.468-55.175-46.655-16.769-.722-34.107-1.47-44.467-13.372-7.995-9.183-10.913-23.978-8.925-45.231 9.507-101.582 90.157-303.72 180.05-324.402 34.423-7.92 66.078 11.518 94.083 57.77 19.139 31.61 32.782 46.49 41.71 45.587 8.22-.862 13.567-16.156 19.229-32.346 7.73-22.1 16.488-47.153 36.487-54.64 12.282-4.601 26.895-1.896 44.681 8.261 21.117 12.064 38.83 15.586 54.14 10.762 27.058-8.52 43.384-42.958 59.172-76.264 23.825-50.263 48.468-102.233 110.752-76.177 43.955 18.39 81.237 53.467 102.285 96.238 26.08 53.004 27.042 116.253 2.78 182.911C733.683 521.62 575.375 642.35 488.32 654.715c-29.562 4.2-49.606 14.07-61.285 30.19-20.33 28.054-12.714 71.36-4.651 117.212 13.215 75.159 28.196 160.34-89.369 185.496-22.993 4.918-42.219 7.387-58.08 7.387z" opacity=".3"/><path d="M279.002 978c-19.389 0-33.582-3.816-43.394-11.486-19.403-15.165-20.43-44.08-21.622-77.56-2.124-59.803-5.036-141.707-116.462-198.395-36.774-18.71-51.857-30.631-50.432-39.86 1.547-10.019 21.784-13.344 47.402-17.557 36.522-6.006 81.976-13.48 80.809-42.469-1.729-42.915-26.812-44-53.365-45.15-16.212-.701-32.976-1.427-42.99-12.934-7.73-8.883-10.552-23.195-8.63-43.754 9.196-98.281 87.18-293.846 174.098-313.856 33.29-7.659 63.887 11.144 90.967 55.89 18.51 30.585 31.762 44.978 40.344 44.108 7.958-.833 13.13-15.63 18.607-31.3 7.47-21.382 15.94-45.616 35.274-52.86 11.866-4.444 26.002-1.832 43.195 7.993 20.423 11.673 37.55 15.08 52.365 10.414 26.17-8.245 41.957-41.57 57.226-73.794 23.035-48.627 46.849-98.915 107.08-73.699 42.503 17.792 78.55 51.726 98.9 93.104 25.222 51.282 26.15 112.475 2.69 176.967-68.464 188.195-221.539 305.002-305.72 316.963-28.586 4.06-47.975 13.618-59.272 29.214-19.659 27.146-12.294 69.05-4.498 113.416 12.779 72.71 27.263 155.123-86.409 179.456-22.235 4.76-40.824 7.149-56.163 7.149z" opacity=".3"/><path d="M282.767 959c-18.698 0-32.384-3.677-41.849-11.072-18.711-14.62-19.702-42.497-20.852-74.778-2.049-57.672-4.855-136.657-112.342-191.324-35.463-18.038-50.01-29.527-48.635-38.418 1.49-9.651 21.004-12.862 45.71-16.922 35.233-5.79 79.084-12.999 77.957-40.962-1.67-41.4-25.868-42.445-51.486-43.552-15.635-.675-31.803-1.373-41.458-12.466-7.453-8.565-10.172-22.361-8.317-42.182 8.867-94.77 84.082-283.34 167.916-302.633 32.1-7.383 61.608 10.744 87.727 53.887 17.854 29.496 30.594 43.416 38.924 42.54 7.685-.807 12.675-15.078 17.96-30.193 7.205-20.613 15.373-43.98 34.014-50.962 11.45-4.289 25.073-1.77 41.654 7.707 19.702 11.258 36.223 14.544 50.52 10.043 25.248-7.954 40.475-40.09 55.206-71.17 22.218-46.88 45.192-95.362 103.268-71.055 40.992 17.153 75.76 49.875 95.39 89.771 24.32 49.448 25.22 108.453 2.593 170.632-66.036 181.472-213.681 294.101-294.874 305.635-27.578 3.917-46.282 13.135-57.18 28.176-18.965 26.18-11.864 66.591-4.341 109.374 12.325 70.109 26.294 149.572-83.336 173.031-21.45 4.588-39.375 6.893-54.17 6.893z" opacity=".4"/><path d="M285.835 942c-18.033 0-31.233-3.55-40.357-10.683-18.046-14.108-19-41.015-20.11-72.167-1.976-55.67-4.683-131.906-108.373-184.676-34.206-17.408-48.231-28.493-46.91-37.071 1.436-9.303 20.258-12.398 44.084-16.316 33.993-5.593 76.295-12.553 75.207-39.554-1.61-39.97-24.955-40.98-49.675-42.047-15.08-.652-30.67-1.327-39.982-12.028-7.187-8.266-9.81-21.578-8.02-40.705 8.555-91.467 81.101-273.469 161.964-292.091 30.942-7.128 59.418 10.37 84.61 52.008 17.228 28.48 29.565 41.923 37.56 41.064 7.42-.777 12.235-14.558 17.333-29.15 6.95-19.894 14.827-42.444 32.805-49.183 11.038-4.138 24.177-1.705 40.169 7.438 19.01 10.87 34.95 14.04 48.741 9.695 24.36-7.677 39.05-38.698 53.258-68.696 21.43-45.245 43.581-92.032 99.596-68.578 39.542 16.554 73.076 48.137 92.009 86.643 23.461 47.72 24.326 104.667 2.5 164.682-63.695 175.15-206.11 283.857-284.428 294.99-26.604 3.783-44.65 12.679-55.163 27.2-18.3 25.275-11.446 64.28-4.191 105.578 11.887 67.664 25.359 144.355-80.376 166.995-20.688 4.43-37.985 6.652-52.251 6.652z" opacity=".4"/><path d="M288.902 924c-17.366 0-30.08-3.416-38.868-10.271-17.376-13.561-18.3-39.432-19.364-69.385-1.906-53.535-4.517-126.853-104.406-177.602-32.945-16.736-46.456-27.39-45.182-35.63 1.384-8.939 19.51-11.914 42.458-15.681 32.748-5.379 73.506-12.071 72.458-38.05-1.55-38.445-24.05-39.418-47.867-40.446-14.526-.625-29.542-1.273-38.506-11.562-6.922-7.942-9.447-20.742-7.722-39.13 8.238-87.952 78.124-262.962 156.012-280.865 29.82-6.853 57.227 9.972 81.488 50.004 16.603 27.387 28.451 40.332 36.197 39.495 7.158-.75 11.796-14.007 16.71-28.04 6.693-19.128 14.284-40.81 31.594-47.287 10.63-3.974 23.28-1.637 38.682 7.152 18.32 10.452 33.68 13.506 46.965 9.324 23.471-7.385 37.627-37.217 51.317-66.068 20.64-43.504 41.983-88.49 95.922-65.94 38.086 15.922 70.39 46.287 88.625 83.313 22.599 45.885 23.432 100.64 2.407 158.348-61.357 168.423-198.54 272.952-273.983 283.659-25.632 3.634-43.018 12.192-53.147 26.16-17.633 24.309-11.03 61.823-4.04 101.535 11.45 65.059 24.426 138.8-77.42 160.568-19.926 4.26-36.586 6.399-50.33 6.399z" opacity=".4"/><path d="M292.666 905c-16.677 0-28.884-3.285-37.322-9.885-16.685-13.046-17.57-37.944-18.594-66.77-1.831-51.532-4.337-122.106-100.286-170.956-31.634-16.103-44.608-26.356-43.385-34.281 1.325-8.59 18.728-11.455 40.76-15.08 31.464-5.178 70.617-11.62 69.611-36.636-1.493-37.02-23.107-37.955-45.99-38.945-13.944-.604-28.363-1.229-36.97-11.126-6.643-7.64-9.071-19.956-7.416-37.65 7.914-84.653 75.03-253.09 149.833-270.325 28.615-6.602 54.948 9.596 78.25 48.123 15.945 26.366 27.337 38.782 34.78 38.023 6.883-.722 11.34-13.485 16.06-26.999 6.429-18.409 13.714-39.275 30.337-45.505 10.203-3.823 22.352-1.575 37.139 6.883 17.596 10.064 32.359 13 45.118 8.974 22.552-7.109 36.15-35.825 49.296-63.596 19.82-41.868 40.32-85.151 92.112-63.462 36.579 15.323 67.6 44.549 85.113 80.182 21.702 44.16 22.504 96.863 2.312 152.4-58.928 162.103-190.683 262.709-263.135 273.013-24.623 3.504-41.324 11.742-51.059 25.19-16.939 23.4-10.596 59.51-3.88 97.74 10.993 62.611 23.46 133.582-74.347 154.53-19.141 4.1-35.14 6.158-48.337 6.158z" opacity=".5"/><path d="M296.04 889c-16.038 0-27.78-3.15-35.893-9.48-16.043-12.524-16.893-36.412-17.877-64.081-1.76-49.46-4.172-117.201-96.471-164.09-30.422-15.454-42.899-25.289-41.723-32.887 1.272-8.238 18.008-10.982 39.193-14.463 30.267-4.967 67.937-11.155 66.968-35.178-1.435-35.545-22.232-36.443-44.247-37.393-13.414-.58-27.278-1.177-35.552-10.673-6.389-7.33-8.722-19.147-7.129-36.125 7.612-81.243 72.163-242.903 144.106-259.44 27.526-6.322 52.844 9.21 75.255 46.18 15.34 25.312 26.297 37.253 33.466 36.5 6.63-.691 10.92-12.947 15.46-25.924 6.182-17.664 13.19-37.685 29.17-43.663 9.814-3.673 21.495-1.513 35.714 6.603 16.93 9.661 31.13 12.48 43.408 8.614 21.7-6.824 34.778-34.388 47.428-61.046 19.06-40.174 38.776-81.714 88.579-60.902 35.181 14.705 65.018 42.75 81.861 76.95 20.876 42.383 21.645 92.958 2.223 146.262C663.302 510.34 536.576 606.9 466.887 616.787c-23.689 3.364-39.755 11.271-49.12 24.18-16.297 22.469-10.197 57.13-3.737 93.825 10.575 60.087 22.561 128.195-71.5 148.298-18.411 3.936-33.795 5.91-46.49 5.91z" opacity=".5"/><path d="M298.846 870c-15.35 0-26.588-3.016-34.353-9.081-15.356-11.99-16.168-34.88-17.112-61.38-1.685-47.394-3.992-112.304-92.37-157.23-29.118-14.803-41.066-24.22-39.938-31.494 1.213-7.879 17.235-10.511 37.513-13.842 28.984-4.764 65.054-10.69 64.126-33.722-1.371-34.07-21.29-34.931-42.38-35.84-12.833-.556-26.108-1.128-34.024-10.22-6.116-7.02-8.346-18.338-6.823-34.6 7.287-77.837 69.085-232.715 137.96-248.558 26.347-6.06 50.584 8.824 72.031 44.239 14.693 24.257 25.207 35.732 32.059 34.978 6.36-.664 10.467-12.412 14.816-24.847 5.919-16.921 12.627-36.102 27.92-41.824 9.384-3.517 20.564-1.449 34.179 6.325 16.21 9.258 29.812 11.956 41.571 8.255 20.782-6.54 33.304-32.953 45.415-58.498 18.247-38.486 37.112-78.28 84.792-58.341 66.185 27.685 119.605 106.411 80.493 213.838-54.264 149.054-175.584 241.563-242.305 251.035-22.682 3.22-38.07 10.803-47.04 23.176-15.604 21.53-9.764 54.74-3.58 89.902 10.123 57.564 21.6 122.81-68.443 142.068-17.623 3.769-32.355 5.661-44.507 5.661z" opacity=".6"/><path d="M302.217 852c-14.71 0-25.478-2.886-32.92-8.685-14.713-11.46-15.493-33.344-16.395-58.682-1.618-45.324-3.83-107.398-88.557-150.366-27.905-14.153-39.353-23.156-38.276-30.098 1.166-7.523 16.515-10.04 35.949-13.224 27.79-4.555 62.375-10.225 61.485-32.266-1.32-32.595-20.417-33.417-40.643-34.288-12.3-.532-25.019-1.078-32.605-9.766-5.856-6.712-7.994-17.53-6.533-33.076 6.985-74.427 66.218-222.522 132.234-237.672 25.252-5.796 48.474 8.436 69.029 42.297 14.09 23.2 24.18 34.14 30.747 33.459 6.108-.64 10.048-11.878 14.217-23.775 5.674-16.178 12.102-34.514 26.755-39.987 8.992-3.361 19.707-1.383 32.75 6.048 15.542 8.855 28.585 11.44 39.864 7.898 19.928-6.258 31.933-31.518 43.544-55.948 17.49-36.794 35.573-74.848 81.257-55.783 63.439 26.47 114.642 101.744 77.154 204.465-52.015 142.529-168.31 230.989-232.26 240.046-21.749 3.083-36.501 10.333-45.102 22.169-14.965 20.594-9.364 52.358-3.435 85.983 9.703 55.04 20.705 117.424-65.596 135.838-16.894 3.603-31.013 5.413-42.663 5.413z" opacity=".6"/><path d="M305.978 835c-14.02 0-24.28-2.756-31.37-8.293-14.023-10.949-14.766-31.859-15.626-56.074-1.54-43.32-3.652-102.653-84.435-143.722-26.594-13.518-37.505-22.118-36.482-28.746 1.113-7.18 15.738-9.583 34.26-12.625 26.5-4.353 59.48-9.774 58.628-30.85-1.254-31.168-19.473-31.956-38.758-32.786-11.724-.51-23.847-1.033-31.072-9.33-5.583-6.41-7.616-16.745-6.228-31.6 6.66-71.125 63.125-212.652 126.053-227.126 24.067-5.532 46.196 8.062 65.79 40.412 13.438 22.187 23.063 32.642 29.33 31.985 5.83-.61 9.589-11.356 13.566-22.73 5.407-15.46 11.533-32.978 25.495-38.206 8.57-3.21 18.78-1.318 31.208 5.78 14.825 8.469 27.268 10.935 38.019 7.547 19.004-5.982 30.452-30.128 41.52-53.479 16.675-35.158 33.914-71.506 77.447-53.302 60.473 25.295 109.279 97.227 73.545 195.388-49.585 136.207-160.446 220.745-221.41 229.404-20.74 2.944-34.807 9.874-43.008 21.19-14.271 19.69-8.93 50.048-3.28 82.188 9.25 52.596 19.734 112.205-62.52 129.8-16.109 3.447-29.57 5.175-40.672 5.175z" opacity=".7"/><path d="M309.045 816c-13.354 0-23.13-2.623-29.884-7.894-13.354-10.42-14.06-30.326-14.882-53.373-1.467-41.253-3.477-97.753-80.464-136.861-25.333-12.87-35.726-21.05-34.753-27.35 1.055-6.824 14.99-9.11 32.63-12.007 25.26-4.147 56.693-9.31 55.884-29.394-1.2-29.693-18.567-30.442-36.955-31.235-11.165-.483-22.714-.982-29.593-8.876-5.312-6.1-7.255-15.935-5.93-30.074 6.347-67.72 60.142-202.461 120.1-216.243 22.926-5.27 44.005 7.676 62.671 38.472 12.806 21.13 21.98 31.104 27.963 30.463 5.567-.583 9.153-10.817 12.943-21.655 5.152-14.714 10.986-31.392 24.283-36.366 8.165-3.052 17.884-1.255 29.721 5.502 14.132 8.064 25.985 10.412 36.244 7.187 18.116-5.698 29.024-28.693 39.577-50.93 15.88-33.47 32.31-68.074 73.769-50.744 57.616 24.081 104.117 92.564 70.073 186.016C615.193 500.325 509.564 580.81 451.48 589.05c-19.771 2.805-33.178 9.41-40.997 20.187-13.6 18.753-8.514 47.661-3.126 78.268 8.811 50.072 18.8 106.82-59.561 123.568-15.347 3.28-28.173 4.927-38.75 4.927z" opacity=".7"/><path d="M312.11 798c-12.688 0-21.974-2.489-28.394-7.492-12.684-9.892-13.356-28.791-14.136-50.678-1.397-39.186-3.309-92.848-76.496-129.998-24.073-12.218-33.952-19.98-33.025-25.958 1-6.463 14.241-8.637 30.998-11.386 24.02-3.94 53.91-8.844 53.137-27.937-1.14-28.216-17.657-28.927-35.141-29.683-10.612-.457-21.586-.93-28.12-8.425-5.05-5.786-6.89-15.124-5.632-28.546 6.032-64.31 57.165-192.271 114.147-205.358 21.767-5.004 41.812 7.285 59.553 36.53 12.177 20.07 20.913 29.523 26.599 28.938 5.302-.554 8.71-10.28 12.316-20.58 4.895-13.968 10.443-29.804 23.072-34.524 7.757-2.9 16.99-1.19 28.235 5.222 13.434 7.66 24.71 9.897 34.466 6.83 17.23-5.415 27.6-27.257 37.63-48.382 15.09-31.776 30.689-64.646 70.102-48.18 54.755 22.865 98.951 87.897 66.593 176.642C603.107 498.195 502.71 574.631 447.5 582.46c-18.797 2.665-31.546 8.936-38.98 19.177-12.936 17.815-8.1 45.277-2.976 74.35 8.377 47.544 17.868 101.432-56.603 117.336-14.583 3.113-26.775 4.678-36.83 4.678z" opacity=".7"/><path d="M315.875 781c-12.001 0-20.782-2.358-26.846-7.103-11.993-9.38-12.633-27.309-13.37-48.066-1.319-37.183-3.128-88.104-72.37-123.352-22.764-11.588-32.106-18.949-31.233-24.608.946-6.12 13.463-8.179 29.308-10.787 22.727-3.738 51.012-8.391 50.284-26.525-1.078-26.788-16.713-27.464-33.265-28.181-10.034-.434-20.41-.884-26.584-7.984-4.772-5.487-6.513-14.34-5.323-27.07 5.706-61.008 54.068-182.4 107.964-194.817 20.59-4.747 39.537 6.917 56.314 34.651 11.521 19.052 19.78 28.043 25.179 27.464 5.029-.526 8.256-9.76 11.67-19.538 4.628-13.249 9.875-28.27 21.815-32.745 7.33-2.744 16.06-1.127 26.691 4.956 12.717 7.274 23.388 9.393 32.62 6.48 16.306-5.14 26.12-25.865 35.609-45.91 14.27-30.143 29.04-61.306 66.285-45.706 51.791 21.69 93.59 83.382 62.987 167.564-42.48 116.842-137.445 189.36-189.664 196.783-17.787 2.53-29.853 8.48-36.89 18.202-12.24 16.91-7.662 42.966-2.816 70.556 7.92 45.098 16.898 96.214-53.53 111.301-13.797 2.955-25.328 4.435-34.835 4.435z" opacity=".8"/><path d="M318.94 762c-11.334 0-19.628-2.227-25.358-6.694-11.324-8.833-11.928-25.723-12.626-45.284-1.246-35.049-2.953-83.048-68.402-116.275-21.503-10.918-30.323-17.846-29.502-23.17.892-5.754 12.713-7.692 27.679-10.147 21.484-3.529 48.226-7.912 47.534-25.023-1.02-25.266-15.803-25.904-31.454-26.578-9.475-.41-19.278-.832-25.107-7.518-4.504-5.168-6.147-13.504-5.024-25.497 5.391-57.495 51.084-171.892 102.007-183.591 19.452-4.47 37.35 6.513 53.198 32.645 10.892 17.964 18.691 26.39 23.814 25.896 4.767-.498 7.815-9.205 11.044-18.428 4.374-12.483 9.326-26.633 20.601-30.848 6.92-2.584 15.163-1.06 25.21 4.669 12.023 6.857 22.11 8.853 30.84 6.11 15.417-4.848 24.693-24.386 33.662-43.28 13.484-28.4 27.429-57.768 62.618-43.068 48.932 20.443 88.426 78.572 59.507 157.9-40.142 110.113-129.874 178.45-179.216 185.448-16.813 2.385-28.221 7.998-34.874 17.164-11.572 15.943-7.246 40.51-2.668 66.513 7.487 42.495 15.968 90.66-50.567 104.872-13.04 2.786-23.932 4.184-32.917 4.184z" opacity=".8"/><path d="M322.004 745c-10.668 0-18.474-2.096-23.868-6.303-10.656-8.32-11.223-24.24-11.88-42.675-1.173-33.044-2.785-78.3-64.436-109.628-20.24-10.285-28.545-16.811-27.77-21.819.834-5.406 11.963-7.235 26.05-9.55 20.243-3.323 45.436-7.46 44.782-23.607-.96-23.839-14.893-24.44-29.642-25.079-8.921-.383-18.145-.782-23.63-7.077-4.24-4.868-5.786-12.723-4.725-24.02 5.073-54.196 48.105-162.024 96.052-173.05 18.316-4.212 35.157 6.142 50.074 30.766 10.265 16.937 17.57 24.95 22.452 24.422 4.504-.473 7.247-8.31 10.423-17.384 4.113-11.767 8.78-25.1 19.387-29.069 6.51-2.435 14.269-.996 23.723 4.398 11.324 6.468 20.828 8.354 29.065 5.764 14.528-4.574 23.266-22.996 31.718-40.816 12.694-26.76 25.812-54.426 58.94-40.584 46.076 19.265 83.267 74.054 56.035 148.823-37.803 103.79-122.303 168.206-168.77 174.802-15.841 2.25-26.59 7.546-32.86 16.191-10.904 15.038-6.828 38.197-2.515 62.716 7.048 40.048 15.035 85.442-47.606 98.836-12.28 2.624-22.54 3.943-31 3.943z" opacity=".8"/><path d="M325.072 726c-10.007 0-17.325-1.958-22.378-5.891-9.992-7.775-10.522-22.658-11.137-39.894-1.106-30.91-2.616-73.243-60.468-102.55-18.98-9.612-26.77-15.71-26.043-20.382.783-5.04 11.213-6.748 24.422-8.908 19-3.113 42.647-6.984 42.035-22.107-.9-22.315-13.983-22.878-27.833-23.476-8.366-.361-17.018-.733-22.155-6.614-3.971-4.547-5.421-11.887-4.429-22.446 4.762-50.68 45.122-151.515 90.102-161.825 17.17-3.93 32.965 5.745 46.954 28.764 9.635 15.85 16.535 23.32 21.089 22.852 4.24-.443 6.813-7.78 9.797-16.277 3.858-10.998 8.234-23.462 18.176-27.17 6.099-2.278 13.374-.933 22.236 4.112 10.632 6.048 19.56 7.814 27.287 5.39 13.643-4.28 21.843-21.512 29.775-38.182 11.9-25.02 24.217-50.89 55.265-37.947 43.222 18.015 78.103 69.245 52.56 139.155-35.464 97.064-114.73 157.307-158.32 163.473-14.87 2.105-24.96 7.06-30.844 15.15-10.238 14.075-6.417 35.74-2.367 58.675 6.611 37.446 14.102 79.89-44.648 92.41-11.515 2.454-21.141 3.688-29.076 3.688z" opacity=".9"/><path d="M328.833 708c-9.314 0-16.124-1.827-20.83-5.502-9.3-7.26-9.795-21.173-10.367-37.28-1.027-28.907-2.435-68.5-56.346-95.904-17.668-8.985-24.919-14.675-24.248-19.03.727-4.696 10.436-6.29 22.73-8.31 17.713-2.912 39.753-6.534 39.184-20.696-.844-20.889-13.04-21.414-25.956-21.973-7.786-.336-15.839-.685-20.62-6.174-3.693-4.244-5.043-11.103-4.118-20.968 4.435-47.377 42.026-141.644 83.918-151.282 15.972-3.67 30.688 5.365 43.716 26.882 8.98 14.828 15.411 21.784 19.668 21.377 3.966-.415 6.367-7.282 9.149-15.232 3.594-10.28 7.667-21.926 16.918-25.389 5.675-2.126 12.446-.866 20.693 3.843 9.914 5.662 18.234 7.31 25.44 5.04 12.722-4.003 20.363-20.123 27.753-35.712 11.085-23.383 22.546-47.564 51.457-35.466 40.251 16.837 72.738 64.723 48.949 130.076C542.888 487.044 469.05 543.362 428.45 549.13c-13.86 1.966-23.264 6.601-28.751 14.174-9.542 13.167-5.98 33.426-2.207 54.877 6.155 35.001 13.13 74.672-41.575 86.373-10.73 2.297-19.694 3.447-27.084 3.447z" opacity=".9"/><path d="M332.9 691c-8.648 0-14.975-1.699-19.342-5.113-8.63-6.75-9.092-19.687-9.622-34.667-.955-26.904-2.263-63.75-52.378-89.257-16.407-8.355-23.14-13.641-22.519-17.68.672-4.348 9.687-5.831 21.1-7.712 16.473-2.709 36.968-6.08 36.438-19.28-.785-19.461-12.132-19.953-24.146-20.471-7.232-.313-14.71-.636-19.146-5.738-3.428-3.943-4.677-10.315-3.822-19.488 4.124-44.078 39.05-131.772 77.97-140.738 14.838-3.416 28.494 4.995 40.594 24.998 8.352 13.807 14.288 20.319 18.304 19.906 3.701-.39 5.933-6.783 8.522-14.191 3.337-9.557 7.122-20.39 15.707-23.61 5.265-1.974 11.547-.804 19.207 3.575 9.217 5.27 16.958 6.806 23.665 4.694 11.828-3.729 18.934-18.733 25.806-33.242 10.293-21.747 20.938-44.24 47.782-32.987 37.395 15.661 67.579 60.204 45.474 120.997-30.693 84.42-99.3 136.817-137.025 142.179-12.884 1.833-21.632 6.151-26.734 13.205-8.877 12.258-5.564 31.117-2.06 51.078 5.721 32.556 12.203 69.454-38.611 80.336-9.97 2.136-18.299 3.206-25.164 3.206z" opacity=".9"/><path d="M335.964 672c-7.983 0-13.821-1.563-17.85-4.704-7.965-6.2-8.39-18.105-8.882-31.886-.884-24.77-2.09-58.696-48.407-82.18-14.944-7.578-21.358-12.589-20.79-16.241.616-3.983 8.935-5.347 19.47-7.072 15.228-2.499 34.181-5.603 33.688-17.78-.725-17.94-11.22-18.39-22.337-18.87-6.676-.286-13.577-.587-17.665-5.27-3.163-3.624-4.318-9.484-3.525-17.919 3.806-40.557 36.066-121.264 72.015-129.51 13.708-3.141 26.303 4.594 37.476 22.995 7.723 12.724 13.238 18.726 16.937 18.335 3.439-.36 5.507-6.253 7.901-13.084 3.082-8.788 6.574-18.752 14.491-21.71 4.86-1.814 10.655-.739 17.725 3.288 8.524 4.856 15.687 6.267 21.885 4.321 10.944-3.434 17.51-17.252 23.86-30.614 9.508-19.998 19.334-40.683 44.115-30.347 34.536 14.41 62.412 55.398 41.996 111.332-28.356 77.698-91.731 125.916-126.58 130.85-11.912 1.69-20 5.67-24.72 12.164-8.206 11.296-5.146 28.658-1.904 47.041 5.28 29.948 11.267 63.898-35.656 73.909-9.21 1.966-16.904 2.952-23.243 2.952z"/><path d="M339.724 654c-7.29 0-12.623-1.435-16.305-4.315-7.27-5.691-7.658-16.62-8.106-29.271-.81-22.768-1.917-53.948-44.285-75.536-13.655-6.958-19.513-11.549-18.997-14.891.56-3.637 8.16-4.89 17.78-6.472 13.937-2.296 31.284-5.153 30.834-16.367-.666-16.512-10.28-16.927-20.455-17.369-6.099-.263-12.406-.536-16.135-4.83-2.888-3.323-3.938-8.697-3.215-16.44 3.48-37.257 32.97-111.39 65.829-118.968 12.513-2.883 24.029 4.22 34.238 21.115 7.07 11.701 12.129 17.261 15.522 16.862 3.166-.334 5.056-5.757 7.25-12.043 2.815-8.07 6.007-17.216 13.236-19.928 4.428-1.663 9.725-.677 16.18 3.017 7.805 4.47 14.361 5.768 20.04 3.976 10.019-3.161 16.028-15.86 21.838-28.145 8.688-18.364 17.672-37.362 40.3-27.866 31.573 13.233 57.053 50.876 38.389 102.251-25.925 71.377-83.87 115.67-115.729 120.206-10.905 1.55-18.308 5.21-22.628 11.186-7.515 10.39-4.713 26.347-1.746 43.245 4.825 27.503 10.295 58.68-32.584 67.871-8.423 1.805-15.454 2.712-21.25 2.712z"/><path d="M342.794 637c-6.627 0-11.472-1.3-14.816-3.913-6.606-5.163-6.957-15.085-7.365-26.577-.734-20.7-1.743-49.046-40.32-68.677-12.407-6.313-17.731-10.475-17.265-13.493.506-3.28 7.41-4.417 16.152-5.854 12.695-2.09 28.499-4.687 28.085-14.908-.606-15.038-9.368-15.416-18.647-15.818-5.542-.239-11.272-.488-14.658-4.377-2.62-3.015-3.574-7.892-2.916-14.914 3.168-33.852 29.99-101.207 59.877-108.088 11.356-2.616 21.838 3.832 31.119 19.174 6.247 10.32 10.79 15.352 13.872 15.352.097 0 .189-.005.283-.013 2.9-.305 4.628-5.247 6.627-10.967 2.56-7.327 5.46-15.63 12.025-18.092 4.017-1.502 8.83-.609 14.694 2.742 7.11 4.066 13.086 5.247 18.262 3.616 9.134-2.878 14.603-14.425 19.893-25.594 7.9-16.676 16.063-33.912 36.627-25.311 28.714 12.02 51.885 46.215 34.914 92.882-23.586 64.853-76.3 105.1-105.283 109.217-9.931 1.413-16.673 4.743-20.614 10.182-6.842 9.454-4.295 23.963-1.593 39.326 4.386 24.983 9.365 53.296-29.623 61.644-7.662 1.639-14.058 2.461-19.33 2.461z"/><path d="M346.147 618c-5.983 0-10.362-1.165-13.38-3.511-5.96-4.635-6.28-13.555-6.645-23.882-.667-18.63-1.58-44.146-36.496-61.813-11.206-5.67-16.02-9.403-15.6-12.103.455-2.923 6.687-3.939 14.579-5.233 11.504-1.879 25.815-4.22 25.441-13.45-.548-13.562-8.494-13.903-16.905-14.263-5.005-.215-10.182-.438-13.234-3.926-2.362-2.703-3.22-7.083-2.63-13.389 2.865-30.444 27.118-91.016 54.14-97.204 10.269-2.344 19.722 3.448 28.11 17.234 5.836 9.591 10.08 14.092 12.843 13.814 2.646-.276 4.21-4.732 6.024-9.888 2.315-6.585 4.937-14.046 10.857-16.253 3.633-1.349 7.962-.548 13.263 2.464 6.44 3.661 11.852 4.724 16.55 3.255 8.275-2.593 13.225-12.99 18.018-23.045 7.135-14.984 14.51-30.484 33.082-22.75 13.21 5.498 24.415 15.99 30.737 28.778 7.841 15.857 8.126 34.778.83 54.73-21.334 58.331-69.005 94.528-95.215 98.231-8.995 1.27-15.1 4.273-18.671 9.175-6.201 8.516-3.895 21.574-1.449 35.404 3.969 22.457 8.466 47.91-26.768 55.41-6.93 1.478-12.715 2.215-17.481 2.215z"/><path d="M349.213 601c-5.32 0-9.207-1.036-11.887-3.112-5.296-4.106-5.578-12.02-5.905-21.186-.594-16.56-1.406-39.24-32.526-54.952-9.962-5.029-14.242-8.327-13.873-10.705.4-2.567 5.94-3.472 12.95-4.615 10.263-1.673 23.03-3.757 22.696-11.993-.494-12.085-7.915-12.405-15.097-12.712-4.447-.191-9.052-.39-11.756-3.474-2.1-2.391-2.861-6.272-2.334-11.864 2.55-27.033 24.139-80.823 48.187-86.316 9.12-2.088 17.532 3.062 24.99 15.288 5.049 8.275 8.73 12.308 11.244 12.308.08 0 .158-.003.235-.013 2.384-.246 3.785-4.219 5.401-8.813 2.058-5.839 4.392-12.462 9.643-14.413 3.223-1.198 7.074-.48 11.78 2.184 5.746 3.262 10.575 4.209 14.772 2.898 7.387-2.31 11.803-11.553 16.073-20.496 6.348-13.294 12.905-27.046 29.416-20.192 11.755 4.884 21.725 14.193 27.353 25.548 6.974 14.075 7.23 30.877.736 48.591-18.995 51.803-61.435 83.949-84.77 87.24-8.025 1.13-13.471 3.801-16.658 8.164-5.536 7.58-3.476 19.196-1.3 31.488 1.815 10.244 3.693 20.84 1.21 29.736-2.821 10.105-11.003 16.466-25.019 19.442l-.063-.294.063.294c-6.169 1.31-11.32 1.969-15.56 1.969z"/></g></svg>