<svg width="923" height="1130" viewBox="0 0 923 1130" xmlns="http://www.w3.org/2000/svg">
	<g stroke="#F15A29" stroke-width="1.3" fill="none" fill-rule="evenodd">
		<path data-depth="0.08" d="M557.315108 1c34.580654 0 70.924734 6.63749 107.110397 19.70453 46.566113 16.8183 89.792973 43.25597 121.730573 74.43055 32.225251 31.46153 49.492649 64.490946 48.6213583 93.003872-1.038045 33.915244-27.2976643 59.400543-75.9523733 73.698594-39.099693 11.486684-60.248296 24.819887-64.658945 40.748199-5.532071 19.962376 15.445609 42.640466 37.653101 66.641063 35.672894 38.564814 76.106621 82.278258 27.777082 131.306684-28.911011 29.336374-37.861543 62.636111-27.356028 101.812273 9.379924 34.971586 33.025671 71.26568 55.891842 106.36619 21.286175 32.667596 43.285224 66.445598 53.6406604 98.992588 11.6227683 36.543623 7.0078456 67.659976-14.1157438 95.133195-21.9990486 28.604421-56.6964316 23.044067-104.7299806 15.341918-86.720527-13.898804-217.793504-34.913363-404.666609 117.5409612-64.629762 52.7214652-122.243341 83.43441157-171.244066 91.28627923-21.986542 3.52668632-42.172139 2.36637325-60.031515-3.42687445-16.696265-5.42727078-31.412324-14.92187558-43.752136-28.23012588C-26.095337 1020.561688-7.268787 839.486308 79.205777 749.360342c36.531678-38.065755 75.472955-51.511246 114.806104-51.511246 50.572383-.004159 101.803445 22.208143 149.465967 42.87336 76.43596 33.137543 142.449783 61.762758 179.736024-13.636798 18.138689-36.680865 15.941702-69.123883-6.9203-102.103391-20.489923-29.560951-55.270682-56.21904-92.085843-84.445007-65.267597-50.034862-139.243933-106.744644-150.416465-194.990819-9.225677-72.854353 24.883897-157.44076 104.279744-258.587621C413.35203 42.0102 459.013501 14.33736 513.78809 4.70552 527.870483 2.23101 542.428126 1 557.315108 1z" opacity=".2"/>
		<path data-depth="0.12" d="M548.188335 29c32.271084 0 66.363081 6.22682 100.438372 18.47664 95.714858 34.42014 172.740302 109.245974 171.6962 166.801429-.530403 29.11257-21.049083 50.970915-59.350896 63.199941-27.44316 8.768295-42.799802 19.541485-46.959502 32.935181-6.097552 19.645473 12.541745 43.517032 32.275261 68.790353 32.592667 41.749231 69.537149 89.072236 17.565961 137.443442-29.401894 27.369726-40.01414 57.264288-32.433964 91.389095 6.782482 30.53929 27.175869 61.677553 46.896855 91.796729 36.990422 56.482296 75.2421191 114.886296 27.07146 172.99081-24.494618 29.55348-56.68635 27.294854-101.227713 24.158566-77.050502-5.411552-193.501213-13.585034-379.777244 131.403801-63.752828 49.6190663-120.627116 77.4546597-169.04836 82.7206283-41.826699 4.5505288-77.071384-8.3440228-101.933525-37.2818925C-12.961841 996.565561 7.469134 824.83093 92.438101 745.679181c82.291891-76.664349 169.282238-42.477149 246.027862-12.320536 70.17614 27.581862 130.792487 51.403506 169.002419-18.942513 40.248019-74.418201-18.601709-122.58975-86.743939-178.373244-51.549371-42.194301-109.977282-90.020609-130.266259-156.494102-23.279284-76.231758 7.170888-165.370546 93.083722-272.511796C416.51045 66.0032 458.750614 40.83387 509.105533 32.2278 521.730807 30.07316 534.802955 29 548.188335 29z" opacity=".2"/>
		<path data-depth="0.16" d="M537.741838 56c29.456444 0 60.740357 5.65942 92.141093 16.79945 45.603249 16.17155 89.166243 42.80117 122.673992 74.982094 32.794285 31.494808 51.653085 64.885792 51.740704 91.606895.079273 24.226136-14.874253 42.460192-43.245899 52.7353-16.822718 6.087721-26.640142 13.971819-30.023878 24.093071-6.145799 18.41702 9.275025 41.890507 27.132473 69.07318 30.215803 45.986412 64.4578769 98.106286 7.835581 146.388069-66.393824 56.610816-34.020942 105.890586.258683 158.068676 31.250534 47.574875 63.5691765 96.767321 14.611398 151.818782-27.207575 30.600778-56.638985 31.889845-97.373159 33.673747-67.395177 2.952378-169.241042 7.410054-353.86953 144.487735-62.818163 46.635104-118.89806 71.5556726-166.700111 74.0672734-41.188955 2.1706219-75.7064-12.8698748-99.801438-43.483128-29.135177-37.0170034-41.76056-95.9897224-33.766432-157.7484884 8.206916-63.41792 35.952718-118.747986 76.127803-151.802149 80.487857-66.224758 158.205306-39.44128 226.7729-15.813937 63.815342 21.984824 118.931437 40.979844 158.080137-24.413258l-.004173.004158c40.742519-68.611611-12.571142-115.724916-74.312851-170.277384-46.587912-41.166967-99.38838-87.818704-117.099798-150.928911-20.323278-72.428911 8.8119-155.228571 89.066108-253.135255 30.428591-36.96711 68.955617-59.61726 114.508799-67.32255C513.855415 56.95225 525.646337 56 537.741838 56z" opacity=".2"/>
		<path data-depth="0.2" d="M523.231294 82c31.342623 0 60.009962 7.00753 81.031842 14.11902 92.201153 31.18246 178.545942 110.827054 181.145984 167.103524.902908 19.450566-8.807537 34.251627-28.073761 42.802057-8.046753 3.576542-12.979307 8.359127-15.065193 14.630552-5.212623 15.641132 7.779224 38.684875 22.827696 65.36754 27.860575 49.41866 62.5389427 110.922703-.823485 160.087678-67.371174 52.267416-41.462721 91.459661-14.036881 132.951705 25.561502 38.676557 52.000832 78.667286 2.278172 130.784987-30.57766 32.051637-55.959416 36.950668-94.374821 44.374071-58.30447 11.266107-146.417454 28.287951-328.378564 156.448754C268.209852 1054.0250614 213.115723 1076 166.009825 1076c-.497435 0-.98233-.0041588-1.483946-.0083175-40.760459-.4034007-74.632062-17.8411217-97.948833-50.4417165-27.095611-37.886391-38.24402-94.807471-29.821056-152.26919 8.719753-59.487041 36.454924-109.783201 76.090927-137.987976 78.356559-55.764942 147.128077-36.239518 207.806861-19.009736 57.769412 16.402187 107.671818 30.571115 147.922301-30.192667 41.583944-62.784945-6.429042-108.934811-62.020606-162.370842-41.75951-40.136285-89.091136-85.633225-104.260832-145.386427-17.431146-68.636333 10.441968-145.10363 85.224514-233.776916C428.563863 96.21052 478.604213 82 523.231294 82z" opacity=".4"/>
		<path data-depth="0.24" d="M511.622022 104c21.659342 0 42.277329 3.75922 60.256381 8.83666 98.372472 27.786619 188.230093 114.718566 197.037695 168.166847 2.584567 15.677275-1.932152 27.977907-13.060846 35.571197-11.203973 7.655667.464218 30.256725 15.248109 58.862555 28.338232 54.870463 67.1527422 130.017424-6.532514 181.831442-68.194097 47.954997-48.876757 76.984986-28.421874 107.715772 19.802468 29.77019 40.290809 60.546719-9.999515 109.815779-35.845186 35.109611-56.873023 43.426468-95.039301 58.52988-50.118855 19.823229-125.853364 49.788864-298.559325 164.906639-105.946342 70.6184319-173.17018 62.592665-210.901515 43.4223098-46.129086-23.4244278-75.098822-77.0723128-77.49101-143.4990488-2.659846-73.816264 28.384235-141.207755 79.071862-171.684877 75.36648-45.30192 135.070817-32.880694 187.740782-21.923235 53.928791 11.223598 96.515599 20.081051 138.278524-36.253179l1.250462.914854-1.250462-.914854c42.302421-57.053639-.476765-102.413776-50.01012-154.938886-73.735442-78.178455-165.500121-175.48568-9.606392-353.653547C426.816436 117.21133 471.034281 104 511.622022 104z" opacity=".4"/>
		<path data-depth="0.28" d="M497.489406 135c16.512463 0 33.900174 2.483415 52.054252 7.483467 99.246476 27.338326 201.277834 126.824415 210.302525 172.451968 1.876131 9.480996-.770553 14.759291-3.769012 17.645534 1.545295 3.110497 4.715453 8.201913 8.597536 14.443672 27.861379 44.755451 101.8596589 163.643737.862685 227.494072-33.276193 21.038426-50.211623 37.624978-53.293837 52.184931-2.374478 11.208589 3.802515 20.369814 10.348033 30.075065 13.400934 19.87147 28.590054 42.39247-22.216235 88.850596l-3.174346 2.898702c-63.298473 57.903429-63.298473 57.903429-188.266366 135.096927-40.948228 25.295115-97.035323 59.942487-173.290822 107.746142-103.141123 64.6476861-169.195163 53.0944092-206.441382 32.018608-48.410873-27.404772-77.189378-87.222673-75.095482-156.118742 1.993389-65.577928 32.54333-120.657407 79.727179-143.743196 71.138019-34.809334 124.038204-28.953791 166.54429-24.248593 48.01722 5.319823 85.950238 9.518372 129.959742-42.82852 43.151006-51.325288 5.565575-95.927083-37.945582-147.572141-63.98527-75.931026-143.61613-170.433675-.268018-327.461894C420.207897 150.652157 456.051207 135 497.489406 135z" opacity=".60000002"/>
		<path data-depth="0.32" d="M413.266931 645.764983h-.029286.029286zM485.699839 163c24.675636 0 51.61467 6.337516 80.373626 19.062418 95.091987 42.072797 184.176138 142.488146 188.092109 164.268424 28.671098 9.990419 66.249356 64.725782 72.8345462 122.498996 6.0664077 53.230982-15.6178622 96.729201-61.0615312 122.478218-40.188905 22.781813-59.057525 37.060964-61.191227 46.315816-.882767 3.848223 1.158893 6.794649 3.744438 10.530667 7.509794 10.846503 16.856246 24.344374-34.294031 68.220766-28.252725 24.24048-41.678313 41.810985-54.660425 58.807996-30.444999 39.845316-61.92338 81.053717-280.355894 209.719844-100.292363 59.0781199-165.148537 43.664449-201.898416 20.325766-49.677604-31.546286-78.294313-98.832009-71.215443-167.435104 5.873956-56.892196 35.544965-100.7769 79.373715-117.391582 63.998509-24.257103 107.216435-24.863843 141.941389-25.358377 44.42284-.623362 76.524596-1.076339 124.323705-50.758311 44.029568-45.771413 11.660054-89.909617-25.821979-141.017012-53.999396-73.627394-121.202642-165.261647 9.087061-301.433056C419.697323 175.995025 450.376611 163 485.699839 163z" opacity=".6"/>
		<path data-depth="0.36" d="M472.578832 191c76.659694 0 163.326462 75.855039 221.069531 126.390384 26.41567 23.114 47.276955 41.375475 57.534415 44.022307 44.931678 11.598617 81.913616 60.406863 87.9437335 116.061081 6.146964 56.727932-20.3646875 104.420846-72.7286415 130.847548-33.67685 16.992161-57.571973 28.386856-71.042713 33.871957-.091808 2.442909-1.923795 8.760348-47.030743 45.141801-33.685195 27.167482-42.682381 48.658425-53.094245 73.549465-20.197763 48.250579-43.087171 102.94761-251.783485 218.009886-97.520979 53.7689743-161.235743 34.071718-197.529121 8.077831-51.095334-36.606184-78.241296-108.977892-66.005791-175.993511 8.834435-48.421209 37.353344-82.480442 78.237123-93.446482 46.667684-12.51835 78.537585-17.612253 104.139502-21.699028 50.565352-8.081993 73.642549-11.765084 131.544195-63.578067 45.036006-40.289275 19.146145-82.184962-13.63349-135.217318-43.92179-71.0691-98.585117-159.513237 18.30318-274.879316C420.936823 200.010049 446.171508 191 472.578832 191z" opacity=".69999999"/>
		<path data-depth="0.4" d="M461.181787 213c56.147025 0 118.433753 48.211326 175.260636 92.197755 43.17517 33.415854 83.958247 64.985918 113.091415 66.785874 54.736949 3.387418 94.7520388 38.690725 104.4253247 92.147757 9.5347964 52.657051-13.5132237 124.009481-86.6399077 156.24203-70.56253 31.103409-83.605728 21.786969-91.64232 8.533125-1.745807-2.87493-2.740414-4.39156-4.599532-4.749884-5.820758-1.099973-20.97907 7.841476-49.197367 29.04096-37.404771 28.107649-42.063056 54.748667-47.464149 85.593749-9.618729 54.948662-21.587585 123.334497-229.687034 228.981925-74.738199 37.94491-144.087896 36.17412-195.25769-4.974879-51.220154-41.18233-77.176455-118.880439-60.381448-180.733099 11.062378-40.728176 38.550457-66.456716 77.394681-72.448237 109.880974-16.932921 119.235314-24.51607 164.177275-60.961016 11.062378-8.974781 24.835794-20.137009 42.747111-33.503351 46.691965-34.840818 25.524046-76.952293-1.284176-130.263495-34.211118-68.044177-76.786166-152.725448 27.420933-247.293979C418.724245 220.195658 439.501875 213 461.181787 213z" opacity=".7"/>
		<path data-depth="0.44" d="M453.248732 239c42.448453 0 88.567829 33.962638 136.60028 69.331373 52.39141 38.580293 106.658137 78.579162 160.262 77.863633 67.079296-.744648 111.6505914 29.311704 121.9249798 82.539528 11.0547217 57.233952-24.7776799 137.202569-101.9383788 166.593314-77.504717 29.523866-94.466478 2.641631-106.851122-16.985479-5.185441-8.224417-9.666064-15.32146-17.473593-16.877318-9.896807-1.971863-25.058767 4.521973-47.742972 20.43-40.438886 28.371532-40.258486 60.204226-40.048719 97.058098.360799 63.677867.813896 142.926796-207.585438 239.660411-98.720553 45.822937-162.875697 7.75017-192.326986-19.028064-50.587413-45.985179-74.177812-125.437951-53.704551-180.883081 12.39723-33.571594 39.402636-52.85758 76.06152-54.313597 82.006317-3.253158 95.087388-20.521521 114.893589-46.663267 12.08258-15.949627 27.122875-35.7889 61.877074-56.792986 48.464572-29.286744 32.224409-71.997965 11.663046-126.066119-24.421076-64.218673-54.812121-144.14569 35.874355-217.928316C420.256576 244.308222 436.46737 239 453.248732 239z" opacity=".8"/>
		<path data-depth="0.48" d="M442.012984 268c32.250577 0 66.062946 25.035516 103.608581 52.836656 54.955017 40.689442 117.209531 86.798346 200.04712 82.63749 78.8370649-3.991109 129.7247427 24.137103 139.6216569 77.114524 12.3439993 66.072731-43.7218108 148.027096-117.6312979 171.944771-78.323427 25.341887-102.318224-12.246578-121.590064-42.457288-9.779988-15.322713-18.219509-28.554648-31.878921-31.465177-11.203975-2.384729-25.711097 2.380589-44.339846 14.577485-43.145534 28.239996-37.812893 65.377185-31.640894 108.380973 10.343737 72.059395 23.213902 161.743429-185.565053 249.253882-96.522057 40.457593-159.904067-4.098753-189.089524-34.263921-48.219269-49.835044-69.040372-128.998945-46.406923-176.46996 13.179182-27.647954 39.671175-41.409829 74.594337-38.739429 71.621087 5.465005 78.832889-15.538001 88.804969-44.606028 7.813134-22.770851 16.670246-48.584717 57.222539-67.509365 50.507669-23.569901 38.906982-69.53804 25.468894-122.763871-15.7766-62.508057-33.653684-133.358527 43.149711-186.807926C418.114233 271.502571 429.957122 268 442.012984 268z" opacity=".8"/>
		<path data-depth="0.52" d="M432.178571 288c24.378653 0 48.158416 18.863017 76.431958 41.285955 49.661927 39.383453 117.667524 93.313985 235.318296 84.532567 10.126711-.76017 19.63359-1.113254 28.529014-1.113254 101.1917247-.004154 125.1599493 46.108673 130.1981765 75.256831 11.72654706 67.866983-54.9598133 155.473461-134.6375125 176.866224-79.748896 21.413532-111.636728-28.371373-137.271798-68.373762-23.369333-36.471545-41.838645-65.283235-87.714572-37.298178-46.135587 28.138752-35.322035 71.206745-22.803946 121.074729 20.328807 81.001723 45.637208 181.805252-165.683546 260.360308-69.756203 25.933013-138.201545 7.182152-187.788087-51.434018-45.364985-53.627294-62.929677-129.768914-39.154103-169.72561 9.716282-16.33327 30.447142-34.029031 73.986136-25.563313 27.846361 5.416731 46.169091 4.353324 56.015202-3.25253 10.532952-8.137558 11.366375-23.4905 12.333815-41.273494 1.507699-27.760744 3.379758-62.317325 48.124911-77.192565 53.498183-17.787147 47.727047-65.935402 41.051291-121.689511-6.826525-56.967058-14.566046-121.527508 49.188677-156.100705C416.435681 289.952349 424.338536 288 432.178571 288z"/>
		<path data-depth="0.56" d="M425.95498 312.000001c18.682469-.004142 34.210049 14.408821 54.3277 33.066981 42.017773 38.981265 105.533985 97.89632 263.299383 83.520632 142.7315548-12.992374 172.4435849 39.304315 177.46881347 71.634081 10.5567458 67.923157-68.68370287 161.996729-151.40540847 179.756149-80.81371 17.35768-118.902515-41.801733-152.493302-93.999022-29.845925-46.382405-53.407176-83.023634-98.851811-57.341226-48.976104 27.682828-32.423395 76.819434-13.247189 133.717502 17.506708 51.961215 37.352386 110.85142 9.958404 164.494148-22.506831 44.063077-73.445326 78.293863-155.727691 104.630652-68.160677 21.818244-137.79001-4.497838-186.297483-70.387441-41.331564-56.148429-55.122699-125.678549-31.39408-158.289947 9.920747-13.638473 30.707871-27.078147 73.365827-13.684031 24.092644 7.566805 39.946592 8.316445 47.126685 2.244777 8.874696-7.517105 5.929017-26.593572 2.811785-46.792428-5.251175-34.019562-11.782717-76.35971 36.544835-86.059468 56.817301-11.40612 57.74201-64.377899 58.725298-120.460062.928893-52.586605 1.878708-106.958263 53.051518-123.893494 4.451993-1.47443 8.66967-2.157803 12.736716-2.157803z"/>
	</g>
</svg>