<?xml version="1.0" encoding="utf-8"?>
<!-- Generator: Adobe Illustrator 21.0.0, SVG Export Plug-In . SVG Version: 6.00 Build 0)  -->
<svg version="1.1" id="Camada_1" xmlns="http://www.w3.org/2000/svg" xmlns:xlink="http://www.w3.org/1999/xlink" x="0px" y="0px"
	 viewBox="0 0 500 500" style="enable-background:new 0 0 500 500;" xml:space="preserve">
<style type="text/css">
	.st0{fill:#FFFFFF;stroke:#FFFFFF;stroke-miterlimit:10;}
	.st1{display:none;}
	.st2{display:inline;fill:none;stroke:#FFFFFF;stroke-width:14;stroke-miterlimit:10;}
	.st3{display:inline;fill:none;stroke:#FFFFFF;stroke-width:12;stroke-miterlimit:10;}
</style>
<g>
	<path class="st0" d="M284.1,155.4h-85.4c-29,0-52.6,23.6-52.6,52.6v85.4c0,29,23.6,52.6,52.6,52.6h85.4c29,0,52.6-23.6,52.6-52.6
		v-85.4C336.7,178.9,313.1,155.4,284.1,155.4L284.1,155.4z M319.8,293.3c0,19.7-16,35.7-35.7,35.7h-85.4c-19.7,0-35.7-16-35.7-35.7
		v-85.4c0-19.7,16-35.7,35.7-35.7h85.4c19.7,0,35.7,16,35.7,35.7V293.3z"/>
	<path class="st0" d="M241.4,201.5c-27.1,0-49.1,22-49.1,49.1s22,49.1,49.1,49.1s49.1-22,49.1-49.1S268.5,201.5,241.4,201.5
		L241.4,201.5z M241.4,282.8c-17.8,0-32.2-14.4-32.2-32.2s14.4-32.2,32.2-32.2s32.2,14.4,32.2,32.2S259.2,282.8,241.4,282.8
		L241.4,282.8z"/>
	<path class="st0" d="M292.6,187.2c-3.3,0-6.5,1.3-8.8,3.6c-2.3,2.3-3.6,5.5-3.6,8.8c0,3.3,1.3,6.5,3.6,8.8c2.3,2.3,5.5,3.6,8.8,3.6
		c3.3,0,6.5-1.3,8.8-3.6c2.3-2.3,3.6-5.5,3.6-8.8c0-3.3-1.3-6.5-3.6-8.8C299,188.5,295.8,187.2,292.6,187.2L292.6,187.2z"/>
</g>
<g id="face" class="st1">
	<path class="st2" d="M298.1,137.3l-29.4-0.1c-33,0-54.4,21.9-54.4,55.8v25.7h-29.6c-2.5,0-4.6,2.1-4.6,4.6v37.3
		c0,2.5,2.1,4.6,4.6,4.6h29.6v94.1c0,2.5,2.1,4.6,4.6,4.6h38.6c2.5,0,4.6-2.1,4.6-4.6v-94.1h34.6c2.5,0,4.6-2.1,4.6-4.6v-37.3
		c0-1.2-0.5-2.4-1.4-3.3c-0.8-0.8-2-1.4-3.3-1.4h-34.6V197c0-10.5,2.5-15.8,16.1-15.8h19.8c2.5,0,4.6-2.1,4.6-4.6v-34.6
		C302.7,139.4,300.7,137.3,298.1,137.3L298.1,137.3z"/>
</g>
<g id="link" class="st1">
	<path class="st3" d="M189.4,215.9h-39.1c-1.7,0-3.1,1.4-3.1,3.1v125.5c0,1.7,1.4,3.1,3.1,3.1h39.1c1.7,0,3.1-1.4,3.1-3.1V219.1
		C192.6,217.3,191.2,215.9,189.4,215.9L189.4,215.9z"/>
	<path class="st3" d="M169.9,153.5c-14.2,0-25.8,11.6-25.8,25.8c0,14.2,11.6,25.8,25.8,25.8c14.2,0,25.8-11.6,25.8-25.8
		C195.7,165.1,184.1,153.5,169.9,153.5L169.9,153.5z"/>
	<path class="st3" d="M288.8,212.8c-15.7,0-27.3,6.8-34.3,14.4v-8.1c0-1.7-1.4-3.1-3.1-3.1h-37.4c-1.7,0-3.1,1.4-3.1,3.1v125.5
		c0,1.7,1.4,3.1,3.1,3.1h39c1.7,0,3.1-1.4,3.1-3.1v-62.1c0-20.9,5.7-29.1,20.3-29.1c15.9,0,17.1,13.1,17.1,30.2v61
		c0,1.7,1.4,3.1,3.1,3.1h39c1.7,0,3.1-1.4,3.1-3.1v-68.9C338.8,244.6,332.8,212.8,288.8,212.8L288.8,212.8z"/>
</g>
</svg>
